<svg width="1297" height="927" viewBox="0 0 1297 927" fill="none" xmlns="http://www.w3.org/2000/svg">
<path fill-rule="evenodd" clip-rule="evenodd" d="M36.5 1C19.103 1 5 15.103 5 32.5V78.4H1292V32.5C1292 15.103 1277.9 1 1260.5 1H36.5Z" fill="#D9D9D9"/>
<ellipse cx="1158.8" cy="39.7001" rx="17.1" ry="17.1" fill="#008E06"/>
<ellipse cx="1202" cy="39.7001" rx="17.1" ry="17.1" fill="#FF9900"/>
<ellipse cx="1245.2" cy="39.7001" rx="17.1" ry="17.1" fill="#C10000"/>
<path fill-rule="evenodd" clip-rule="evenodd" d="M4.99988 78.4V158.5H1292V78.4H4.99988Z" fill="#F1F1F1"/>
<rect x="233.6" y="88.3" width="829.8" height="56.7" rx="18" fill="white"/>
<rect x="58.9998" y="98.2001" width="40.5" height="40.5" rx="4.5" fill="white"/>
<rect x="108.5" y="98.2001" width="40.5" height="40.5" rx="4.5" fill="white"/>
<rect x="158" y="98.2001" width="40.5" height="40.5" rx="4.5" fill="white"/>
<path d="M117.19 117.097L128.118 106.15L125.573 103.6L110.3 118.9L111.572 120.175L125.573 134.2L128.118 131.65L117.19 120.703H146.3V117.097H117.19Z" fill="black"/>
<path d="M78.7999 105.67V109.45C76.9285 109.447 75.0981 109.999 73.541 111.037C71.9838 112.075 70.77 113.553 70.0533 115.281C69.3367 117.01 69.1495 118.913 69.5155 120.748C69.8816 122.584 70.7843 124.269 72.1093 125.591L69.4444 128.256C67.594 126.405 66.3338 124.048 65.8233 121.481C65.3127 118.915 65.5747 116.255 66.5761 113.837C67.5775 111.42 69.2734 109.353 71.4493 107.899C73.6251 106.446 76.1832 105.67 78.7999 105.67ZM88.1554 109.545C90.0059 111.395 91.2661 113.752 91.7766 116.319C92.2872 118.885 92.0252 121.546 91.0238 123.963C90.0224 126.381 88.3265 128.447 86.1506 129.901C83.9748 131.355 81.4167 132.13 78.7999 132.13V128.35C80.6714 128.353 82.5018 127.801 84.0589 126.763C85.6161 125.725 86.8299 124.248 87.5466 122.519C88.2632 120.79 88.4504 118.887 88.0843 117.052C87.7183 115.217 86.8156 113.531 85.4905 112.21L88.1554 109.545ZM78.7999 137.8L71.2399 130.24L78.7999 122.68V137.8ZM78.7999 115.12V100L86.3599 107.56L78.7999 115.12Z" fill="black"/>
<path d="M189.81 117.097L178.882 106.15L181.427 103.6L196.7 118.9L195.427 120.175L181.427 134.2L178.882 131.65L189.81 120.703H160.7V117.097H189.81Z" fill="black"/>
<path d="M268.781 125.265C265.743 127.625 261.92 128.738 258.09 128.378C254.261 128.018 250.712 126.212 248.167 123.327C245.622 120.443 244.272 116.697 244.393 112.852C244.513 109.007 246.094 105.353 248.814 102.633C251.534 99.9129 255.188 98.3319 259.033 98.2117C262.878 98.0916 266.624 99.4414 269.508 101.986C272.393 104.531 274.199 108.08 274.559 111.909C274.919 115.739 273.806 119.562 271.446 122.6L281.557 132.674L278.873 135.358L268.8 125.265H268.781ZM259.52 124.66C261.009 124.66 262.484 124.367 263.859 123.797C265.235 123.227 266.485 122.392 267.538 121.339C268.591 120.286 269.427 119.036 269.997 117.66C270.567 116.284 270.86 114.809 270.86 113.32C270.86 111.831 270.567 110.356 269.997 108.98C269.427 107.605 268.591 106.355 267.538 105.302C266.485 104.248 265.235 103.413 263.859 102.843C262.484 102.273 261.009 101.98 259.52 101.98C256.512 101.98 253.628 103.175 251.501 105.302C249.375 107.428 248.18 110.313 248.18 113.32C248.18 116.328 249.375 119.212 251.501 121.339C253.628 123.465 256.512 124.66 259.52 124.66Z" fill="black"/>
<g filter="url(#filter0_d_203_386)">
<rect x="4.55" y="0.55" width="1287.9" height="918" rx="31.95" stroke="black" stroke-width="0.900001" shape-rendering="crispEdges"/>
</g>
<defs>
<filter id="filter0_d_203_386" x="0.499996" y="0.0999756" width="1296" height="926.1" filterUnits="userSpaceOnUse" color-interpolation-filters="sRGB">
<feFlood flood-opacity="0" result="BackgroundImageFix"/>
<feColorMatrix in="SourceAlpha" type="matrix" values="0 0 0 0 0 0 0 0 0 0 0 0 0 0 0 0 0 0 127 0" result="hardAlpha"/>
<feOffset dy="3.6"/>
<feGaussianBlur stdDeviation="1.8"/>
<feComposite in2="hardAlpha" operator="out"/>
<feColorMatrix type="matrix" values="0 0 0 0 0 0 0 0 0 0 0 0 0 0 0 0 0 0 0.25 0"/>
<feBlend mode="normal" in2="BackgroundImageFix" result="effect1_dropShadow_203_386"/>
<feBlend mode="normal" in="SourceGraphic" in2="effect1_dropShadow_203_386" result="shape"/>
</filter>
</defs>
</svg>
